<?xml version="1.0" standalone="no"?>
<!DOCTYPE svg PUBLIC "-//W3C//DTD SVG 20010904//EN"
 "http://www.w3.org/TR/2001/REC-SVG-20010904/DTD/svg10.dtd">
<svg version="1.0" xmlns="http://www.w3.org/2000/svg"
 width="158.000000pt" height="128.000000pt" viewBox="0 0 158.000000 128.000000"
 preserveAspectRatio="xMidYMid meet">

<g transform="translate(0.000000,128.000000) scale(0.100000,-0.100000)"
fill="#000000" stroke="none">
<path d="M700 1200 c0 -47 4 -80 10 -80 6 0 10 11 10 25 0 21 5 25 29 25 20 0
34 -8 46 -26 9 -14 19 -23 22 -21 2 3 -3 16 -11 30 -15 22 -15 26 -1 37 22 18
19 67 -4 80 -11 5 -38 10 -60 10 l-41 0 0 -80z m102 46 c20 -30 -4 -57 -54
-59 -31 -2 -33 0 -36 35 -3 31 0 37 20 41 29 5 61 -2 70 -17z"/>
<path d="M886 1243 c30 -72 32 -79 27 -107 -4 -20 -2 -27 6 -22 6 4 11 16 11
27 0 12 16 40 35 63 45 55 46 74 1 21 -38 -44 -47 -42 -66 18 -6 20 -16 37
-21 37 -5 0 -2 -17 7 -37z"/>
<path d="M543 1249 l-31 -9 15 -68 c8 -37 19 -71 23 -75 4 -4 31 -1 61 7 l54
15 -55 -2 c-52 -2 -55 -1 -55 22 0 18 8 27 35 38 l35 13 -39 -6 c-41 -6 -56 4
-56 39 0 11 8 17 23 18 12 0 31 4 42 9 l20 9 -20 -1 c-11 0 -34 -4 -52 -9z"/>
<path d="M1130 1183 c-20 -10 -21 -13 -6 -13 13 0 16 -5 12 -16 -5 -13 -4 -14
7 -6 8 7 17 9 20 5 4 -3 7 1 7 10 0 8 6 17 12 19 7 3 4 7 -7 9 -11 3 -31 -1
-45 -8z"/>
<path d="M360 1171 c0 -8 49 -121 56 -130 5 -6 94 31 94 40 0 4 -16 1 -35 -7
-19 -7 -38 -14 -43 -14 -5 0 -21 27 -36 60 -26 57 -36 71 -36 51z"/>
<path d="M1290 1085 c-10 -12 -7 -23 13 -57 13 -24 22 -49 20 -55 -8 -23 -41
-14 -67 18 -14 17 -26 24 -26 17 0 -14 31 -47 57 -62 17 -10 53 11 53 31 0 8
-9 31 -21 50 -37 59 -1 87 46 37 14 -15 25 -23 25 -17 0 5 -9 19 -20 31 -24
25 -62 29 -80 7z"/>
<path d="M216 1078 c17 -29 85 -118 90 -118 9 0 74 55 74 63 0 4 -15 -3 -33
-17 -19 -15 -36 -26 -39 -26 -3 0 -23 25 -43 55 -21 30 -42 55 -47 55 -5 0 -6
-6 -2 -12z"/>
<path d="M1440 1002 c0 -6 5 -14 10 -17 23 -14 7 -42 -45 -75 -50 -32 -68 -51
-47 -50 4 0 32 19 62 41 l55 39 18 -21 c33 -40 27 -13 -8 35 -42 59 -45 62
-45 48z"/>
<path d="M100 964 c0 -12 75 -144 82 -144 4 0 3 11 -4 24 -9 22 -7 29 17 58
21 25 34 32 54 29 45 -5 15 11 -46 25 -62 15 -103 18 -103 8z m94 -25 c5 -4
-1 -19 -12 -34 l-21 -27 -21 34 c-11 18 -20 36 -20 40 0 9 62 -2 74 -13z"/>
<path d="M691 745 c-144 -165 -154 -175 -188 -175 -34 0 -35 -1 -29 -31 5 -25
0 -39 -19 -65 -33 -43 -26 -43 21 -2 33 29 43 32 113 35 93 3 262 42 373 84
118 46 170 100 140 147 -6 9 -32 0 -103 -38 -115 -60 -214 -91 -364 -115 l-40
-7 45 46 c27 28 52 45 63 44 13 -2 48 30 112 102 l94 105 -21 23 c-12 12 -27
22 -33 22 -6 0 -80 -79 -164 -175z m-143 -206 c-2 -6 -8 -10 -13 -10 -5 0 -11
4 -13 10 -2 6 4 11 13 11 9 0 15 -5 13 -11z"/>
<path d="M16 796 c-23 -36 -20 -73 9 -101 54 -55 140 -16 133 61 -3 35 -6 39
-33 41 l-30 2 28 -10 c35 -14 37 -56 4 -87 -58 -55 -138 9 -102 81 19 38 13
46 -9 13z"/>
<path d="M1443 805 c-25 -18 -34 -59 -21 -97 23 -65 124 -66 149 -1 12 32 -5
89 -31 103 -27 14 -72 12 -97 -5z m105 -22 c28 -37 0 -113 -43 -113 -50 0 -84
43 -71 93 11 45 85 57 114 20z"/>
<path d="M1448 588 c19 -9 22 -17 17 -37 -4 -14 -7 -26 -8 -27 -1 -1 -15 -9
-32 -18 l-30 -16 28 6 c22 5 32 2 43 -15 21 -29 69 -28 88 2 8 12 17 36 20 53
l7 31 -70 16 c-79 19 -96 21 -63 5z m106 -38 c13 -13 -2 -58 -24 -70 -14 -8
-26 -8 -40 0 -21 11 -24 28 -14 68 6 20 11 22 38 16 17 -3 35 -10 40 -14z"/>
<path d="M50 505 c0 -13 -3 -15 -13 -7 -10 8 -13 6 -13 -9 0 -10 3 -19 7 -19
4 0 10 -8 12 -17 4 -16 5 -16 6 1 1 15 4 16 16 6 13 -11 13 -8 3 21 -14 42
-18 48 -18 24z"/>
<path d="M1341 408 c-17 -23 -28 -44 -26 -47 3 -2 12 4 19 15 44 60 39 58 66
36 l23 -19 -22 -32 c-13 -18 -21 -34 -19 -36 2 -2 12 9 23 26 23 33 31 35 56
13 17 -16 17 -18 -8 -50 -14 -19 -23 -37 -21 -40 3 -3 20 14 37 38 l31 43 -22
17 c-13 10 -42 31 -65 48 l-41 30 -31 -42z"/>
<path d="M250 365 l34 -35 -21 -21 -21 -21 -23 26 c-12 14 -27 26 -33 26 -5 0
3 -13 17 -28 l28 -29 -21 -24 -20 -24 -29 35 c-16 19 -32 32 -35 29 -3 -3 11
-22 32 -42 l38 -37 54 55 54 55 -34 35 c-19 19 -38 35 -44 35 -5 0 5 -16 24
-35z"/>
<path d="M341 275 c-1 -22 -9 -34 -31 -47 -45 -25 -41 -60 12 -98 l41 -30 19
27 c42 61 78 145 43 99 -22 -29 -56 -9 -71 40 -11 38 -12 38 -13 9z m34 -71
c23 -15 24 -17 9 -45 -16 -33 -39 -37 -66 -12 -18 16 -24 53 -11 66 11 12 43
8 68 -9z"/>
<path d="M1014 195 c-10 -8 -28 -15 -39 -15 -18 -1 -18 -2 -3 -10 10 -6 14
-18 11 -30 -3 -11 0 -20 6 -20 6 0 11 7 11 15 0 13 4 14 23 4 30 -16 30 -15
16 -37 -18 -29 -4 -54 27 -50 39 4 53 32 29 58 -14 16 -16 23 -7 32 7 7 12 22
12 34 0 35 -50 46 -86 19z m65 -9 c9 -11 10 -20 1 -35 -10 -20 -13 -20 -40 -6
-33 17 -36 25 -18 43 16 16 43 15 57 -2z m6 -102 c0 -10 -8 -20 -17 -22 -18
-3 -26 27 -11 42 12 11 28 0 28 -20z"/>
<path d="M1254 198 c4 -12 0 -18 -12 -19 -12 0 -9 -3 8 -10 13 -6 28 -15 33
-22 6 -8 7 -6 3 5 -3 10 1 18 12 21 16 4 16 5 0 6 -12 1 -16 7 -12 19 5 14 4
15 -5 2 -10 -13 -12 -13 -22 0 -9 13 -10 12 -5 -2z"/>
<path d="M485 175 c-40 -40 -32 -96 17 -121 67 -35 138 16 123 87 -13 60 -95
80 -140 34z m103 -1 c32 -22 30 -76 -4 -103 -33 -26 -45 -26 -78 0 -50 40 -25
119 39 119 11 0 31 -7 43 -16z"/>
<path d="M692 93 c-1 -46 0 -83 2 -83 2 0 19 25 37 55 18 30 36 55 39 55 3 0
19 -25 35 -55 17 -30 33 -55 38 -55 4 0 6 37 5 83 l-1 82 -6 -65 c-6 -63 -6
-64 -21 -40 -9 14 -22 37 -29 52 -17 33 -31 25 -64 -36 l-22 -41 -6 65 -6 65
-1 -82z"/>
</g>
</svg>
